HIERARCHY
ROOT Hips
{
	OFFSET 0.00 0.00 0.00
	CHANNELS 6 Xposition Yposition Zposition Xrotation Yrotation Zrotation
	JOINT LeftUpLeg
	{
		OFFSET 2.83210 0.00000 0.00000
		CHANNELS 3 Xrotation Yrotation Zrotation
		JOINT LeftLeg
		{
			OFFSET 0.00000 -16.27150 0.00000
			CHANNELS 3 Xrotation Yrotation Zrotation
			JOINT LeftFoot
			{
				OFFSET 0.00000 -14.95190 0.00000
				CHANNELS 3 Xrotation Yrotation Zrotation
				JOINT LeftToeBase
				{
					OFFSET 0.00000 -1.07991 4.03030
					CHANNELS 3 Xrotation Yrotation Zrotation
					End Site
					{
						OFFSET 0.00000 0.00000 2.95275
					}
				}
			}
		}
	}
	JOINT RightUpLeg
	{
		OFFSET -2.83210 0.00000 0.00000
		CHANNELS 3 Xrotation Yrotation Zrotation
		JOINT RightLeg
		{
			OFFSET 0.00000 -16.27150 0.00000
			CHANNELS 3 Xrotation Yrotation Zrotation
			JOINT RightFoot
			{
				OFFSET 0.00000 -14.95190 0.00000
				CHANNELS 3 Xrotation Yrotation Zrotation
				JOINT RightToeBase
				{
					OFFSET 0.00000 -1.07991 4.03030
					CHANNELS 3 Xrotation Yrotation Zrotation
					End Site
					{
						OFFSET 0.00000 0.00000 2.95275
					}
				}
			}
		}
	}
	JOINT Spine
	{
		OFFSET 0.00000 0.03937 0.00000
		CHANNELS 3 Xrotation Yrotation Zrotation
		JOINT Spine1
		{
			OFFSET 0.00000 8.01054 0.00000
			CHANNELS 3 Xrotation Yrotation Zrotation
			JOINT Neck
			{
				OFFSET 0.00000 8.21888 0.00000
				CHANNELS 3 Xrotation Yrotation Zrotation
				JOINT Head
				{
					OFFSET 0.00000 3.25664 0.00000
					CHANNELS 3 Xrotation Yrotation Zrotation
					End Site
					{
						OFFSET 0.00000 4.52755 0.00000
					}
				}
			}
			JOINT LeftShoulder
			{
				OFFSET 0.00000 8.21888 0.00000
				CHANNELS 3 Xrotation Yrotation Zrotation
				JOINT LeftArm
				{
					OFFSET 6.52904 -0.00002 0.00000
					CHANNELS 3 Xrotation Yrotation Zrotation
					JOINT LeftForeArm
					{
						OFFSET 10.44840 -0.00004 0.00000
						CHANNELS 3 Xrotation Yrotation Zrotation
						JOINT LeftHand
						{
							OFFSET 8.94727 -0.00003 0.00000
							CHANNELS 3 Xrotation Yrotation Zrotation
							JOINT LeftHandThumb
							{
								OFFSET 0.00000 0.00000 0.00000
								CHANNELS 3 Xrotation Yrotation Zrotation
								End Site
								{
									OFFSET 0.00000 0.00000 3.93700
								}
							}
							JOINT L_Wrist_End
							{
								OFFSET 3.93700 -0.00001 0.00000
								CHANNELS 3 Xrotation Yrotation Zrotation
							}
						}
					}
				}
			}
			JOINT RightShoulder
			{
				OFFSET 0.00000 8.21888 0.00000
				CHANNELS 3 Xrotation Yrotation Zrotation
				JOINT RightArm
				{
					OFFSET -6.52904 -0.00002 0.00000
					CHANNELS 3 Xrotation Yrotation Zrotation
					JOINT RightForeArm
					{
						OFFSET -10.44840 -0.00004 0.00000
						CHANNELS 3 Xrotation Yrotation Zrotation
						JOINT RightHand
						{
							OFFSET -8.94727 -0.00003 0.00000
							CHANNELS 3 Xrotation Yrotation Zrotation
							JOINT RightHandThumb
							{
								OFFSET 0.00000 0.00000 0.00000
								CHANNELS 3 Xrotation Yrotation Zrotation
								End Site
								{
									OFFSET 0.00000 0.00000 3.93700
								}
							}
							JOINT R_Wrist_End
							{
								OFFSET -5.39369 -0.00002 0.00000
								CHANNELS 3 Xrotation Yrotation Zrotation
							}
						}
					}
				}
			}
		}
	}
}
MOTION
Frames: 17
Frame Time: 0.008333
 -0.1703 32.6187 -9.5452 3.1213 5.2893 6.5973 -7.8235 21.6636 -7.2939 21.4233 -0.0000 -0.0000 -11.8207 23.8220 -6.1501 15.6466 0.0000 0.0000 -9.7417 -19.5918 -19.4183 30.1237 -0.0000 -0.0000 -15.6876 -15.0450 33.8664 15.6248 0.0000 0.0000 -8.0805 3.3601 -9.3784 8.1436 -5.6515 7.2167 -20.8384 29.2899 -3.3479 -14.5754 -26.1648 -6.5608 4.6909 23.3643 12.2002 -75.2441 -19.3807 -30.2484 -0.0014 -81.3954 -0.0012 -18.5999 -10.7512 7.7388 -0.0000 0.0000 0.0000 -0.0000 0.0000 0.0000 12.6088 -22.4871 -4.9165 -61.6543 -20.9182 35.3238 -179.9931 88.2518 179.9929 -40.4948 8.4726 -43.7209 -0.0000 0.0000 0.0000 -0.0000 0.0000 0.0000
 -0.1019 32.6479 -9.4673 3.1339 4.8616 6.5198 -7.3016 21.4772 -7.5129 20.7050 -0.0000 0.0000 -11.8907 24.3180 -5.5137 15.8531 -0.0000 0.0000 -10.0483 -19.3853 -19.4272 30.6288 -0.0000 0.0000 -15.8956 -16.7804 32.6230 16.0944 0.0000 -0.0000 -8.1827 3.4478 -9.2269 7.9632 -5.5976 7.3444 -20.7817 29.6197 -3.3959 -14.2401 -25.9236 -6.2966 4.7431 23.6183 12.2343 -75.5617 -18.9684 -30.8554 -0.0017 -82.8827 -0.0015 -25.4034 -12.2144 3.6621 0.0000 0.0000 0.0000 0.0000 0.0000 0.0000 12.5428 -22.2364 -4.9412 -62.3034 -20.5120 36.7555 -179.9972 85.7457 179.9970 -48.5362 10.5781 -39.2735 0.0000 0.0000 -0.0000 0.0000 0.0000 -0.0000
 -0.0379 32.6786 -9.3884 3.1017 4.4062 6.4655 -6.7441 21.2988 -7.7471 19.9840 -0.0000 -0.0000 -11.8963 24.8205 -4.7472 16.0945 0.0000 -0.0000 -10.2376 -18.9956 -19.3732 31.0797 0.0000 0.0000 -16.1438 -18.5299 31.6595 16.4876 -0.0000 -0.0000 -8.3063 3.5824 -9.1249 7.8913 -5.4876 7.5145 -20.7729 29.7975 -3.6743 -13.7022 -25.6995 -5.6761 4.7545 23.8385 12.1736 -75.8937 -18.7408 -31.6831 -0.0021 -84.2369 -0.0019 -31.9791 -13.9029 -1.1712 -0.0000 0.0000 0.0000 -0.0000 0.0000 0.0000 12.5396 -21.9466 -4.7929 -62.9753 -19.7787 38.1643 -179.9982 83.3405 179.9980 -55.1541 12.4496 -33.9590 0.0000 0.0000 -0.0000 0.0000 0.0000 -0.0000
 0.0251 32.7085 -9.3123 3.0539 3.9515 6.4075 -6.2164 21.0021 -7.9901 19.2864 -0.0000 0.0000 -11.9094 25.4285 -3.9361 16.4177 -0.0000 0.0000 -10.3000 -18.4096 -19.2209 31.4104 0.0000 0.0000 -16.3861 -20.1503 30.7782 16.7944 0.0000 0.0000 -8.4472 3.7172 -9.0371 7.8717 -5.3732 7.7218 -20.8692 29.9348 -4.0480 -12.9544 -25.4846 -4.8482 4.7603 24.0250 12.0901 -76.2415 -18.5473 -32.7364 -0.0027 -85.5753 -0.0025 -38.0702 -14.9558 -6.2900 -0.0000 -0.0000 0.0000 -0.0000 -0.0000 0.0000 12.4998 -21.5497 -4.7376 -63.5558 -18.9558 39.6447 -179.9987 81.0216 179.9984 -61.6190 14.7506 -27.8490 -0.0000 -0.0000 0.0000 -0.0000 -0.0000 0.0000
 0.0868 32.7358 -9.2512 3.0444 3.4703 6.3406 -5.8084 20.6491 -8.2198 18.6635 0.0000 0.0000 -11.9835 26.1045 -3.0216 14.9976 -0.0000 0.0000 -10.4906 -17.5816 -18.9951 31.9484 -0.0000 -0.0000 -16.7208 -21.6320 29.4133 17.2819 -0.0000 0.0000 -8.5845 3.8757 -8.9607 7.8199 -5.2324 7.9173 -20.8555 30.0889 -4.3372 -12.3831 -25.2998 -4.1404 4.6810 24.2273 12.0981 -76.6275 -18.3763 -34.2169 -0.0038 -86.8314 -0.0036 -43.8441 -15.8572 -11.6464 0.0000 0.0000 0.0000 0.0000 0.0000 0.0000 12.4038 -21.1615 -4.6073 -64.0775 -17.6994 41.2930 -179.9989 78.9637 179.9987 -66.4453 16.4716 -22.2400 -0.0000 0.0000 0.0000 -0.0000 0.0000 0.0000
 0.1432 32.7616 -9.1967 3.0076 3.0124 6.2558 -5.4442 20.2110 -8.4152 18.0988 0.0000 0.0000 -11.9837 26.8321 -2.2725 15.0495 -0.0000 0.0000 -10.5880 -16.6315 -18.6734 32.3903 0.0000 0.0000 -17.0147 -22.7791 28.4770 17.7578 0.0000 0.0000 -8.7272 4.0393 -8.9160 7.8490 -5.0649 8.1961 -21.1711 30.2633 -4.4995 -11.4022 -25.2433 -3.4810 4.6417 24.3319 11.9941 -76.9993 -18.3867 -35.8262 -0.0060 -87.9794 -0.0058 -50.2166 -17.1403 -16.6588 0.0000 -0.0000 0.0000 0.0000 -0.0000 0.0000 12.4211 -20.7511 -4.4471 -64.7271 -16.1552 42.9730 -179.9991 77.0249 179.9989 -70.7194 18.3158 -17.1960 -0.0000 -0.0000 -0.0000 -0.0000 -0.0000 -0.0000
 0.1912 32.7862 -9.1485 2.9382 2.5426 6.1369 -5.0981 19.6637 -8.5540 17.5652 0.0000 0.0000 -12.1078 27.5965 -1.4184 15.0471 -0.0000 0.0000 -10.6758 -15.6584 -18.2320 32.7911 -0.0000 -0.0000 -17.3162 -23.6256 27.3017 17.8546 -0.0000 0.0000 -8.8515 4.2191 -8.8728 7.9095 -4.8644 8.5218 -21.3306 30.3018 -4.8660 -10.5175 -25.0914 -2.6375 4.6783 24.3148 11.7937 -77.3685 -18.5607 -37.5550 -0.0128 -89.0595 -0.0126 -56.8846 -18.6337 -21.2319 0.0000 -0.0000 -0.0000 0.0000 -0.0000 -0.0000 12.3204 -20.2007 -4.4223 -65.3195 -14.5493 44.6066 -179.9992 75.1321 179.9990 -74.2306 19.7461 -12.8960 -0.0000 -0.0000 -0.0000 -0.0000 -0.0000 -0.0000
 0.2374 32.8088 -9.1107 2.8472 2.0608 6.0266 -4.7389 19.0100 -8.7130 16.9701 -0.0000 0.0000 -12.1952 28.4622 -0.6504 15.0473 0.0000 -0.0000 -10.7930 -14.6288 -17.7446 33.1614 0.0000 0.0000 -17.4564 -24.1389 26.2462 17.9418 -0.0000 0.0000 -8.9634 4.4043 -8.8495 8.0171 -4.6422 8.8845 -21.7934 30.5058 -4.9282 -9.3790 -25.0945 -2.0982 4.7639 24.2618 11.5017 -77.7391 -18.9276 -39.4689 -0.2341 -89.9485 -0.2339 -63.9514 -20.5647 -25.7500 -0.0000 -0.0000 -0.0000 -0.0000 -0.0000 -0.0000 12.1773 -19.5057 -4.5305 -65.9325 -12.9115 46.2625 -179.9993 73.2689 179.9991 -76.7240 20.4931 -9.4802 0.0000 0.0000 -0.0000 0.0000 0.0000 -0.0000
 0.2748 32.8284 -9.0796 2.7230 1.5625 5.8969 -4.4295 18.3584 -8.8245 16.4792 0.0000 0.0000 -12.2946 29.2797 0.2126 15.0472 0.0000 0.0000 -10.9159 -13.5204 -17.1433 33.4951 -0.0000 0.0000 -17.3002 -24.3381 24.9483 17.7034 0.0000 0.0000 -9.0772 4.5722 -8.8380 8.1940 -4.4228 9.3037 -21.6779 30.4049 -5.4920 -8.8291 -24.7061 -1.2764 4.9260 24.0864 11.1644 -78.0527 -19.3375 -41.3769 -179.9840 -89.2442 -179.9838 -71.2362 -22.3011 -30.5301 -0.0000 0.0000 0.0000 -0.0000 0.0000 0.0000 11.8400 -18.6345 -4.9027 -66.4198 -11.3372 48.0586 -179.9994 71.4161 179.9991 -78.2626 20.6932 -7.3849 0.0000 0.0000 0.0000 0.0000 0.0000 0.0000
 0.3161 32.8439 -9.0596 2.6180 1.0379 5.8320 -4.1965 17.5450 -9.0281 16.0380 -0.0000 0.0000 -12.5125 30.2694 1.3279 15.0472 0.0000 -0.0000 -11.1728 -12.3155 -16.5580 33.8343 -0.0000 0.0000 -16.7717 -24.3309 23.6017 17.4978 -0.0000 0.0000 -9.1577 4.7801 -8.7920 8.3215 -4.1909 9.5783 -21.8387 30.4807 -5.6587 -8.0697 -24.6041 -0.8282 5.0521 23.8822 10.8797 -78.4276 -19.7598 -43.5684 -179.9918 -88.5227 -179.9916 -78.4790 -23.3965 -35.3879 0.0000 0.0000 -0.0000 0.0000 0.0000 -0.0000 11.5413 -17.6223 -5.2786 -66.9009 -9.7206 49.8142 -179.9994 69.5708 179.9992 -80.7391 21.0037 -5.1421 -0.0000 -0.0000 -0.0000 -0.0000 -0.0000 -0.0000
 0.3509 32.8551 -9.0467 2.5141 0.5023 5.7852 -4.0131 16.6481 -9.2396 15.6229 0.0000 -0.0000 -12.8123 31.2654 2.5194 15.0472 -0.0000 0.0000 -11.5136 -11.0845 -15.8991 34.1024 -0.0000 0.0000 -15.8778 -24.3203 22.0412 17.0345 -0.0000 -0.0000 -9.2582 5.0098 -8.7639 8.5434 -3.9405 9.8544 -22.0982 30.4980 -5.8959 -7.2485 -24.4947 -0.3165 5.1794 23.5865 10.5676 -78.9563 -20.0953 -45.8764 -179.9944 -87.8370 -179.9942 -84.8522 -23.7461 -39.5913 -0.0000 0.0000 -0.0000 -0.0000 0.0000 -0.0000 11.3404 -16.5816 -5.6700 -67.5059 -7.9282 51.6338 -179.9995 67.8686 179.9992 -82.7247 21.5924 -3.9877 -0.0000 0.0000 0.0000 -0.0000 0.0000 0.0000
 0.3836 32.8609 -9.0428 2.4263 -0.0237 5.7609 -3.8997 15.6889 -9.4637 15.2671 0.0000 0.0000 -13.2490 32.2944 3.8507 15.0472 0.0000 0.0000 -11.9306 -9.7413 -15.2100 34.3248 -0.0000 0.0000 -14.9390 -24.3230 21.3768 17.4359 0.0000 -0.0000 -9.3617 5.2363 -8.7354 8.7991 -3.6938 10.1280 -22.5929 30.6126 -6.0084 -6.1947 -24.4915 0.1114 5.2881 23.1425 10.2193 -79.4837 -20.3098 -48.1083 -179.9958 -87.1054 -179.9956 -89.5605 -23.3478 -42.7145 0.0000 0.0000 0.0000 0.0000 0.0000 0.0000 11.0326 -15.4742 -6.2380 -68.1206 -6.2064 53.6843 -179.9995 66.2912 179.9993 -84.2852 22.1981 -3.3051 0.0000 0.0000 0.0000 0.0000 0.0000 0.0000
 0.4147 32.8603 -9.0449 2.3366 -0.5154 5.7730 -3.8154 14.7462 -9.7153 14.9830 -0.0000 0.0000 -13.7387 33.2766 5.0844 15.0472 -0.0000 0.0000 -12.3698 -8.3449 -14.5159 34.4647 -0.0000 0.0000 -14.6407 -24.5584 21.7281 17.2474 0.0000 -0.0000 -9.3841 5.4338 -8.6751 8.9756 -3.4910 10.2545 -22.5603 30.4407 -6.4019 -5.8390 -24.2168 0.5806 5.3801 22.5877 9.9735 -80.0260 -20.2847 -50.3058 -179.9968 -86.2862 -179.9965 -92.5621 -22.5578 -44.7717 0.0000 0.0000 0.0000 0.0000 0.0000 0.0000 10.5970 -14.2128 -6.8826 -68.6358 -4.5698 55.7584 -179.9996 64.8232 179.9993 -85.4854 22.7994 -3.0220 -0.0000 0.0000 0.0000 -0.0000 0.0000 0.0000
 0.4449 32.8525 -9.0552 2.2684 -1.0177 5.8120 -3.7742 14.1235 -9.9529 14.8248 0.0000 -0.0000 -14.2793 33.9997 6.2971 18.4801 -0.0000 0.0000 -12.9360 -6.9300 -13.8070 34.5897 -0.0000 -0.0000 -15.0117 -24.5925 21.9997 17.0743 0.0000 0.0000 -9.4211 5.6271 -8.6413 9.2287 -3.2865 10.4028 -22.5908 30.1463 -6.9010 -5.4525 -23.9421 1.1516 5.4414 22.0622 9.6839 -80.6492 -20.2341 -52.5953 -179.9973 -85.5571 -179.9971 -93.9615 -22.2020 -45.7827 0.0000 -0.0000 -0.0000 0.0000 -0.0000 -0.0000 10.4200 -13.0182 -7.4880 -69.6335 -2.9001 58.0295 -179.9996 63.7211 179.9993 -87.2055 23.4283 -2.2770 -0.0000 0.0000 -0.0000 -0.0000 0.0000 -0.0000
 0.4811 32.8385 -9.0674 2.2046 -1.5016 5.9155 -3.7206 13.8034 -10.2416 14.7814 -0.0000 -0.0000 -14.9321 34.4636 7.6393 18.0033 -0.0000 -0.0000 -13.6295 -5.5995 -13.1758 34.5884 -0.0000 0.0000 -15.3421 -24.3720 21.3881 17.0139 -0.0000 -0.0000 -9.4249 5.8225 -8.5748 9.4217 -3.1153 10.3881 -22.5136 29.8736 -7.2703 -5.2500 -23.7377 1.5366 5.5385 21.4592 9.5110 -81.3212 -19.8937 -54.9718 -179.9977 -84.7875 -179.9975 -94.0976 -21.9386 -45.9623 0.0000 0.0000 -0.0000 0.0000 0.0000 -0.0000 10.2214 -11.8248 -7.9911 -70.6463 -1.0439 60.3327 -179.9996 62.9125 179.9993 -87.8101 23.9611 -1.7196 0.0000 0.0000 0.0000 0.0000 0.0000 0.0000
 0.5211 32.8227 -9.0909 2.2059 -1.9340 6.0817 -3.7706 13.2879 -10.6006 14.8430 -0.0000 0.0000 -15.5092 34.9700 9.1213 17.9064 0.0000 0.0000 -14.4150 -4.3232 -12.6016 34.4470 -0.0000 0.0000 -15.3312 -24.2194 21.7897 17.2081 0.0000 -0.0000 -9.4174 5.9776 -8.5336 9.6178 -2.9854 10.3292 -22.4955 29.5996 -7.6439 -5.1114 -23.5360 1.8939 5.6035 20.8677 9.2590 -81.9883 -19.5671 -57.3528 -179.9980 -84.0823 -179.9977 -94.4354 -22.0377 -46.1309 -0.0000 -0.0000 -0.0000 -0.0000 -0.0000 -0.0000 9.8751 -10.5528 -8.6381 -71.5611 0.6424 62.7460 -179.9996 62.2340 179.9993 -88.9789 24.5463 -0.9826 -0.0000 0.0000 -0.0000 -0.0000 0.0000 -0.0000
 0.5516 32.8038 -9.1080 2.1202 -2.3919 6.1700 -3.6878 13.3407 -10.8087 14.8751 -0.0000 0.0000 -16.0393 35.2578 10.1385 17.8542 0.0000 0.0000 -15.1590 -3.1630 -11.9119 34.1882 -0.0000 0.0000 -15.2214 -24.2198 22.1208 17.3079 0.0000 0.0000 -9.3080 6.1322 -8.4682 9.7900 -2.8286 10.2860 -22.5868 29.5385 -7.6567 -5.0137 -23.5815 1.7738 5.6597 20.2239 9.0150 -82.6062 -19.2463 -59.7175 -179.9982 -83.4485 -179.9979 -95.2931 -22.4028 -46.5222 -0.0000 0.0000 -0.0000 -0.0000 0.0000 -0.0000 9.3513 -9.2249 -9.3063 -72.2544 2.5173 65.0738 -179.9996 61.8394 179.9993 -90.9503 26.1296 0.7049 -0.0000 -0.0000 -0.0000 -0.0000 -0.0000 -0.0000
